<?xml version="1.0" encoding="iso-8859-1"?>
<!-- Generator: Adobe Illustrator 19.0.0, SVG Export Plug-In . SVG Version: 6.00 Build 0)  -->
<svg xmlns="http://www.w3.org/2000/svg" xmlns:xlink="http://www.w3.org/1999/xlink" version="1.1" id="Capa_1" x="0px" y="0px" viewBox="0 0 512 512" style="enable-background:new 0 0 512 512;" xml:space="preserve" width="512px" height="512px">
<g>
	<g>
		<path d="M384,85.333c-7.765,0-15.061,2.091-21.333,5.739v-5.739c0-23.531-19.136-42.667-42.667-42.667    c-7.765,0-15.061,2.091-21.333,5.739v-5.739C298.667,19.136,279.531,0,256,0s-42.667,19.136-42.667,42.667v5.739    c-6.272-3.648-13.568-5.739-21.333-5.739c-23.531,0-42.667,19.136-42.667,42.667v117.355c-8.917-6.699-19.989-10.688-32-10.688    c-17.643,0-32,14.357-32,32v96.235c0,50.837,19.797,98.645,55.744,134.592l35.285,35.307c13.909,13.888,33.131,21.867,52.8,21.867    h80.171c64.683,0,117.333-52.629,117.333-117.333V128C426.667,104.469,407.531,85.333,384,85.333z M405.333,394.667    c0,52.928-43.072,96-96,96h-80.171c-14.037,0-27.797-5.696-37.717-15.637l-35.285-35.285    c-31.915-31.936-49.493-74.368-49.493-119.509V224c0-5.888,4.8-10.667,10.667-10.667c17.643,0,32,14.357,32,32v64    c0,5.888,4.779,10.667,10.667,10.667s10.667-4.779,10.667-10.667v-224C170.667,73.579,180.224,64,192,64    s21.333,9.579,21.333,21.333V224c0,5.888,4.779,10.667,10.667,10.667s10.667-4.779,10.667-10.667V42.667    c0-11.755,9.557-21.333,21.333-21.333s21.333,9.579,21.333,21.333V224c0,5.888,4.779,10.667,10.667,10.667    s10.667-4.779,10.667-10.667V85.333C298.667,73.579,308.224,64,320,64s21.333,9.579,21.333,21.333V224    c0,5.888,4.779,10.667,10.667,10.667c5.888,0,10.667-4.779,10.667-10.667v-96c0-11.755,9.557-21.333,21.333-21.333    s21.333,9.579,21.333,21.333V394.667z" fill="#FFFFFF"/>
	</g>
</g>
<g>
</g>
<g>
</g>
<g>
</g>
<g>
</g>
<g>
</g>
<g>
</g>
<g>
</g>
<g>
</g>
<g>
</g>
<g>
</g>
<g>
</g>
<g>
</g>
<g>
</g>
<g>
</g>
<g>
</g>
</svg>
