<?xml version="1.0" encoding="iso-8859-1"?>
<!-- Generator: Adobe Illustrator 19.0.0, SVG Export Plug-In . SVG Version: 6.00 Build 0)  -->
<svg xmlns="http://www.w3.org/2000/svg" x="0px" y="0px"
     width="96" height="96"
     viewBox="0 0 252 252"
     style="fill:#ffffff;"><g fill="none" fill-rule="nonzero" stroke="none" stroke-width="1" stroke-linecap="butt" stroke-linejoin="miter" stroke-miterlimit="10" stroke-dasharray="" stroke-dashoffset="0" font-family="none" font-weight="none" font-size="none" text-anchor="none" style="mix-blend-mode: normal"><path d="M0,252v-252h252v252z" fill="none"></path><g fill="#ffffff"><g id="surface1"><path d="M229.9541,110.78321l-52.5,-53.03321h-140.7041c-11.5459,0 -21,9.4541 -21,21.53321v93.43359c0,12.0791 9.4541,21.5332 21,21.5332h141.75l51.4541,-53.0332c8.3877,-8.3877 8.3877,-22.0459 0,-30.43359zM199.5,136.5c-5.7832,0 -10.5,-4.71679 -10.5,-10.5c0,-5.7832 4.7168,-10.5 10.5,-10.5c5.78321,0 10.5,4.7168 10.5,10.5c0,5.78321 -4.71679,10.5 -10.5,10.5z"></path></g></g></g></svg>
