<?xml version="1.0" encoding="iso-8859-1"?>
<!-- Generator: Adobe Illustrator 19.0.0, SVG Export Plug-In . SVG Version: 6.00 Build 0)  -->
<svg xmlns="http://www.w3.org/2000/svg" x="0px" y="0px"
     width="32" height="32"
     viewBox="0 0 50 50"
     style="fill:#ffffff;"><g id="surface1"><path style=" " d="M 24.875 0 C 24.652344 0.0234375 24.441406 0.125 24.28125 0.28125 L 17.28125 7.28125 C 16.984375 7.566406 16.894531 8.007813 17.054688 8.386719 C 17.210938 8.765625 17.589844 9.007813 18 9 L 32 9 C 32.410156 9.007813 32.789063 8.765625 32.945313 8.386719 C 33.105469 8.007813 33.015625 7.566406 32.71875 7.28125 L 25.71875 0.28125 C 25.496094 0.0625 25.183594 -0.0429688 24.875 0 Z M 25 2.4375 L 29.5625 7 L 20.4375 7 Z M 2 14 L 2 16 L 48 16 L 48 14 Z M 2 24 L 2 26 L 48 26 L 48 24 Z M 2 34 L 2 36 L 48 36 L 48 34 Z M 17.8125 41 C 17.433594 41.058594 17.121094 41.328125 17.007813 41.691406 C 16.894531 42.058594 17 42.457031 17.28125 42.71875 L 24.28125 49.71875 C 24.46875 49.914063 24.730469 50.023438 25 50.023438 C 25.269531 50.023438 25.53125 49.914063 25.71875 49.71875 L 32.71875 42.71875 C 33.015625 42.433594 33.105469 41.992188 32.945313 41.613281 C 32.789063 41.234375 32.410156 40.992188 32 41 L 18 41 C 17.96875 41 17.9375 41 17.90625 41 C 17.875 41 17.84375 41 17.8125 41 Z M 20.4375 43 L 29.5625 43 L 25 47.5625 Z "></path></g></svg>
